<svg width="16" height="14" viewBox="0 0 16 14" fill="none" xmlns="http://www.w3.org/2000/svg">
<path d="M3.2957 5.71373C3.49091 4.48669 5.02471 3.17599 6.22387 3.1481C6.30753 3.1481 6.39119 3.12021 6.44696 3.06444C6.50274 3.03655 6.55851 3.00866 6.5864 2.925C7.00471 2.14416 6.78161 1.53064 6.08443 1.02867C5.2757 0.443035 3.99288 1.02867 3.35148 1.55853C1.73402 2.89711 0.0886671 5.21171 0.172329 7.41485C-0.106544 8.89292 -0.0507693 10.4825 0.36754 11.7932C0.646412 12.6298 1.45514 13.0481 2.29176 13.1039C3.12838 13.1597 4.85739 13.4106 5.61034 12.9087C6.3633 12.4067 6.41908 11.4306 6.50274 10.594C6.5864 9.67377 6.83738 7.94471 6.05654 7.21964C5.2757 6.52246 3.04472 7.27542 3.2957 5.71373Z" fill="black"/>
<path d="M12.4986 5.71373C12.6938 4.48669 14.2276 3.17599 15.4268 3.1481C15.5104 3.1481 15.5941 3.12021 15.6498 3.06444C15.7057 3.03655 15.7614 3.00866 15.7893 2.925C16.2076 2.14416 15.9845 1.53064 15.2874 1.02867C14.4786 0.443035 13.1958 1.02867 12.5544 1.55853C10.9369 2.89711 9.29155 5.21176 9.37521 7.41485C9.09634 8.89292 9.15211 10.4825 9.57038 11.7932C9.84925 12.6298 10.658 13.0481 11.4946 13.1039C12.3313 13.1597 14.0603 13.4106 14.8132 12.9087C15.5661 12.4067 15.622 11.4306 15.7056 10.594C15.7893 9.67377 16.0403 7.94471 15.2594 7.21964C14.4786 6.52246 12.2197 7.27542 12.4986 5.71373Z" fill="black"/>
</svg>
