<svg width="76" height="12" viewBox="0 0 76 12" fill="none" xmlns="http://www.w3.org/2000/svg">
<path d="M5.99996 9.13L2.47346 11.104L3.26096 7.14L0.293457 4.396L4.30696 3.92L5.99996 0.25L7.69296 3.92L11.7065 4.396L8.73896 7.14L9.52646 11.104L5.99996 9.13Z" fill="#F4C300"/>
<path d="M22 9.13L18.4735 11.104L19.261 7.14L16.2935 4.396L20.307 3.92L22 0.25L23.693 3.92L27.7065 4.396L24.739 7.14L25.5265 11.104L22 9.13Z" fill="#F4C300"/>
<path d="M38 9.13L34.4735 11.104L35.261 7.14L32.2935 4.396L36.307 3.92L38 0.25L39.693 3.92L43.7065 4.396L40.739 7.14L41.5265 11.104L38 9.13Z" fill="#F4C300"/>
<path d="M54 9.13L50.4735 11.104L51.261 7.14L48.2935 4.396L52.307 3.92L54 0.25L55.693 3.92L59.7065 4.396L56.739 7.14L57.5265 11.104L54 9.13Z" fill="#F4C300"/>
<g clip-path="url(#clip0_280:10)">
<path d="M70.4893 10.0676L66.7814 12.25L67.6094 7.86747L64.4893 4.83375L68.7092 4.30749L70.4893 0.25L72.2693 4.30749L76.4893 4.83375L73.3691 7.86747L74.1971 12.25L70.4893 10.0676ZM70.4893 8.80058L72.722 10.1146L72.2231 7.47609L74.1015 5.64912L71.5607 5.33237L70.4893 2.88958L69.4178 5.33292L66.8771 5.64912L68.7554 7.47609L68.2565 10.1146L70.4893 8.80058Z" fill="#444444"/>
</g>
<defs>
<clipPath id="clip0_280:10">
<rect width="12" height="12" fill="white" transform="translate(64)"/>
</clipPath>
</defs>
</svg>
